<?xml version="1.0" encoding="UTF-8"?>
<svg version="1.1" xmlns="http://www.w3.org/2000/svg" width="310" height="98">
<path d="M0 0 C102.3 0 204.6 0 310 0 C310 32.34 310 64.68 310 98 C207.7 98 105.4 98 0 98 C0 65.66 0 33.32 0 0 Z " fill="#010101" transform="translate(0,0)"/>
<path d="M0 0 C102.3 0 204.6 0 310 0 C310 32.34 310 64.68 310 98 C207.7 98 105.4 98 0 98 C0 65.66 0 33.32 0 0 Z M10 10 C10 35.74 10 61.48 10 88 C83.59 88 157.18 88 233 88 C233 62.26 233 36.52 233 10 C159.41 10 85.82 10 10 10 Z " fill="#FDFDFD" transform="translate(0,0)"/>
<path d="M0 0 C102.3 0 204.6 0 310 0 C310 32.34 310 64.68 310 98 C207.7 98 105.4 98 0 98 C0 65.66 0 33.32 0 0 Z M4 4 C4 33.7 4 63.4 4 94 C103.66 94 203.32 94 306 94 C306 64.3 306 34.6 306 4 C206.34 4 106.68 4 4 4 Z " fill="#414141" transform="translate(0,0)"/>
<path d="M0 0 C7 0 7 0 9.43359375 2.40625 C10.42552734 3.93765625 10.42552734 3.93765625 11.4375 5.5 C12.11683594 6.5209375 12.79617188 7.541875 13.49609375 8.59375 C13.99238281 9.3878125 14.48867188 10.181875 15 11 C15.33 7.37 15.66 3.74 16 0 C18.64 0 21.28 0 24 0 C24 8.58 24 17.16 24 26 C17 26 17 26 14.56640625 23.59375 C13.90511719 22.5728125 13.24382812 21.551875 12.5625 20.5 C11.88316406 19.4790625 11.20382812 18.458125 10.50390625 17.40625 C10.00761719 16.6121875 9.51132812 15.818125 9 15 C8.67 18.63 8.34 22.26 8 26 C5.36 26 2.72 26 0 26 C0 17.42 0 8.84 0 0 Z " fill="#0B0B0B" transform="translate(275,36)"/>
<path d="M0 0 C7.59 0 15.18 0 23 0 C23 2.31 23 4.62 23 7 C20.36 7 17.72 7 15 7 C15 13.27 15 19.54 15 26 C12.69 26 10.38 26 8 26 C8 19.73 8 13.46 8 7 C5.36 7 2.72 7 0 7 C0 4.69 0 2.38 0 0 Z " fill="#020202" transform="translate(248,36)"/>
<path d="M0 0 C10 0 10 0 13.0625 2.375 C15.87713202 6.18837242 16.55044624 8.2294659 16 13 C13.94696376 16.43229611 11.87134276 18.70955241 8 20 C5.36 20 2.72 20 0 20 C0 13.4 0 6.8 0 0 Z " fill="#060606" transform="translate(105,38)"/>
<path d="M0 0 C1.32 0 2.64 0 4 0 C5.67239921 3.95593578 7.33694382 7.9151284 9 11.875 C9.47695312 13.00292969 9.95390625 14.13085938 10.4453125 15.29296875 C11.12207031 16.90751953 11.12207031 16.90751953 11.8125 18.5546875 C12.23144531 19.54968262 12.65039062 20.54467773 13.08203125 21.56982422 C14 24 14 24 14 26 C12.68 25.67 11.36 25.34 10 25 C9.505 22.525 9.505 22.525 9 20 C4.38 20 -0.24 20 -5 20 C-5.66 21.98 -6.32 23.96 -7 26 C-7.99 26 -8.98 26 -10 26 C-7.70175036 16.89455379 -3.8597477 8.5231689 0 0 Z " fill="#F1F1F1" transform="translate(154,35)"/>
<path d="M0 0 C4.34911213 1.08727803 4.65799966 1.35684732 7.015625 4.81640625 C7.54414063 5.58017578 8.07265625 6.34394531 8.6171875 7.13085938 C9.15601563 7.93330078 9.69484375 8.73574219 10.25 9.5625 C10.80429688 10.36880859 11.35859375 11.17511719 11.9296875 12.00585938 C13.29644713 13.99708677 14.64954708 15.99767752 16 18 C16.33 12.06 16.66 6.12 17 0 C17.99 0 18.98 0 20 0 C20 8.58 20 17.16 20 26 C15.65088787 24.91272197 15.34200034 24.64315268 12.984375 21.18359375 C12.45585937 20.41982422 11.92734375 19.65605469 11.3828125 18.86914062 C10.84398437 18.06669922 10.30515625 17.26425781 9.75 16.4375 C9.19570312 15.63119141 8.64140625 14.82488281 8.0703125 13.99414062 C6.70355287 12.00291323 5.35045292 10.00232248 4 8 C3.67 13.94 3.34 19.88 3 26 C2.01 26 1.02 26 0 26 C0 17.42 0 8.84 0 0 Z " fill="#F0F0F0" transform="translate(176,35)"/>
<path d="M0 0 C14.0625 -0.80357143 14.0625 -0.80357143 18.3125 2.875 C21.69267312 6.39991604 22.29070077 8.9467344 22.21875 13.90234375 C21.78269966 18.083755 20.07479907 21.02596334 17 23.8125 C11.14213045 27.29061005 7.97477724 26 0 26 C0 17.42 0 8.84 0 0 Z M3 3 C3 9.6 3 16.2 3 23 C10.54774118 23.37256907 10.54774118 23.37256907 16 20 C18.37162473 17.62837527 18.94704164 16.41484051 19.375 13.0625 C18.95090948 9.59909411 18.08283899 7.77711865 16 5 C12.21417472 2.07549967 12.21417472 2.07549967 3 3 Z " fill="#F2F2F2" transform="translate(102,35)"/>
<path d="M0 0 C1.32 0 2.64 0 4 0 C4.01981934 0.59538574 4.03963867 1.19077148 4.06005859 1.80419922 C4.15516126 4.49492153 4.26489842 7.18485148 4.375 9.875 C4.4059375 10.81214844 4.436875 11.74929687 4.46875 12.71484375 C4.50742188 13.61074219 4.54609375 14.50664063 4.5859375 15.4296875 C4.6173584 16.25710449 4.6487793 17.08452148 4.68115234 17.93701172 C4.82599137 20.21986085 4.82599137 20.21986085 7 22 C10.5 22.41666667 10.5 22.41666667 14 22 C16.05127844 18.92308234 16.27260872 18.06355001 16.4140625 14.55078125 C16.45273438 13.70322266 16.49140625 12.85566406 16.53125 11.98242188 C16.5621875 11.10134766 16.593125 10.22027344 16.625 9.3125 C16.66367188 8.41982422 16.70234375 7.52714844 16.7421875 6.60742188 C16.83640218 4.4051538 16.92201588 2.20289278 17 0 C18.32 0 19.64 0 21 0 C21.08138426 2.87557703 21.14067851 5.74882262 21.1875 8.625 C21.21263672 9.43324219 21.23777344 10.24148437 21.26367188 11.07421875 C21.32547782 16.14230591 20.87955468 19.63703837 18 24 C13.99745384 26.66836411 10.70686701 26.8340238 6 26 C3.24430553 23.81840855 1.56411253 22.12822506 0 19 C-0.08342159 17.55151418 -0.10732861 16.09929131 -0.09765625 14.6484375 C-0.09443359 13.79765625 -0.09121094 12.946875 -0.08789062 12.0703125 C-0.07951172 11.18085937 -0.07113281 10.29140625 -0.0625 9.375 C-0.05798828 8.4778125 -0.05347656 7.580625 -0.04882812 6.65625 C-0.03702591 4.43743352 -0.02056155 2.21874982 0 0 Z " fill="#DBDBDB" transform="translate(71,35)"/>
<path d="M0 0 C5.28 0 10.56 0 16 0 C16 0.99 16 1.98 16 3 C11.71 3 7.42 3 3 3 C3 5.64 3 8.28 3 11 C6.96 11 10.92 11 15 11 C15 11.99 15 12.98 15 14 C11.04 14 7.08 14 3 14 C3 16.97 3 19.94 3 23 C7.29 23 11.58 23 16 23 C16 23.99 16 24.98 16 26 C10.72 26 5.44 26 0 26 C0 17.42 0 8.84 0 0 Z " fill="#F8F8F8" transform="translate(20,35)"/>
<path d="M0 0 C6.93 0 13.86 0 21 0 C21 0.99 21 1.98 21 3 C18.36 3 15.72 3 13 3 C13 10.59 13 18.18 13 26 C11.68 26 10.36 26 9 26 C9 18.41 9 10.82 9 3 C6.03 3 3.06 3 0 3 C0 2.01 0 1.02 0 0 Z " fill="#DFDFDF" transform="translate(42,35)"/>
<path d="M0 0 C6.93 0 13.86 0 21 0 C21 0.99 21 1.98 21 3 C18.03 3 15.06 3 12 3 C12 10.59 12 18.18 12 26 C11.01 26 10.02 26 9 26 C9 18.41 9 10.82 9 3 C6.03 3 3.06 3 0 3 C0 2.01 0 1.02 0 0 Z " fill="#F5F5F5" transform="translate(204,35)"/>
<path d="M0 0 C0.99 0 1.98 0 3 0 C3 8.58 3 17.16 3 26 C2.01 26 1.02 26 0 26 C0 17.42 0 8.84 0 0 Z " fill="#F9F9F9" transform="translate(133,35)"/>
<path d="M0 0 C0.66 0 1.32 0 2 0 C2.6708712 1.6232687 3.33657029 3.24867578 4 4.875 C4.556875 6.23238281 4.556875 6.23238281 5.125 7.6171875 C6 10 6 10 6 12 C2.7 12 -0.6 12 -4 12 C-2.66666667 8 -1.33333333 4 0 0 Z " fill="#131313" transform="translate(155,40)"/>
<path d="M0 0 C2.5 0.125 2.5 0.125 3.5 1.125 C3.625 3.625 3.625 3.625 3.5 6.125 C2.5 7.125 2.5 7.125 0 7.25 C-2.5 7.125 -2.5 7.125 -3.5 6.125 C-3.625 3.625 -3.625 3.625 -3.5 1.125 C-2.5 0.125 -2.5 0.125 0 0 Z " fill="#070707" transform="translate(241.5,54.875)"/>
</svg>
