<?xml version="1.0" encoding="UTF-8"?>
<svg version="1.1" xmlns="http://www.w3.org/2000/svg" width="411" height="61">
<path d="M0 0 C135.63 0 271.26 0 411 0 C411 20.13 411 40.26 411 61 C275.37 61 139.74 61 0 61 C0 40.87 0 20.74 0 0 Z " fill="#F9F9F9" transform="translate(0,0)"/>
<path d="M0 0 C80.19 0 160.38 0 243 0 C243 3.96 243 7.92 243 12 C162.81 12 82.62 12 0 12 C0 8.04 0 4.08 0 0 Z " fill="#000000" transform="translate(2,47)"/>
<path d="M0 0 C25.40890823 -0.76532856 25.40890823 -0.76532856 32 5 C36.19738995 9.57481194 37.42873758 14.52140291 37.33984375 20.5859375 C36.74562447 24.80694341 34.84140076 27.87587279 32 31 C29.72033865 32.69262409 27.59410665 33.77636479 25 35 C24.01 35.495 24.01 35.495 23 36 C21.2595583 36.08449628 19.51590278 36.10723024 17.7734375 36.09765625 C16.3800415 36.09390991 16.3800415 36.09390991 14.95849609 36.09008789 C13.77594238 36.08098389 12.59338867 36.07187988 11.375 36.0625 C5.744375 36.0315625 5.744375 36.0315625 0 36 C0 24.12 0 12.24 0 0 Z " fill="#060606" transform="translate(123,3)"/>
<path d="M0 0 C8 0 8 0 10.79296875 2.16015625 C11.58316406 3.11792969 12.37335938 4.07570313 13.1875 5.0625 C13.98542969 6.00222656 14.78335938 6.94195313 15.60546875 7.91015625 C18.15969644 11.20606832 20.5763611 14.60690555 23 18 C23.33 12.06 23.66 6.12 24 0 C27.3 0 30.6 0 34 0 C34 11.88 34 23.76 34 36 C25 36 25 36 21.8203125 33.296875 C20.89397124 32.13631677 19.99563197 30.95291459 19.125 29.75 C18.66609375 29.16347656 18.2071875 28.57695312 17.734375 27.97265625 C16.46056794 26.33437839 15.22673592 24.67367853 14 23 C13.01 21.68 12.02 20.36 11 19 C10.67 24.61 10.34 30.22 10 36 C6.7 36 3.4 36 0 36 C0 24.12 0 12.24 0 0 Z " fill="#050505" transform="translate(236,3)"/>
<path d="M0 0 C9 0 9 0 12.1796875 2.703125 C13.10602876 3.86368323 14.00436803 5.04708541 14.875 6.25 C15.33390625 6.83652344 15.7928125 7.42304688 16.265625 8.02734375 C17.53943206 9.66562161 18.77326408 11.32632147 20 13 C20.99 14.32 21.98 15.64 23 17 C23.33 11.39 23.66 5.78 24 0 C27.3 0 30.6 0 34 0 C34 11.88 34 23.76 34 36 C26 36 26 36 23.4609375 34.09375 C22.77257812 33.2378125 22.08421875 32.381875 21.375 31.5 C20.63121094 30.59507813 19.88742187 29.69015625 19.12109375 28.7578125 C18.07115234 27.39269531 18.07115234 27.39269531 17 26 C16.37222656 25.19304688 15.74445313 24.38609375 15.09765625 23.5546875 C13.70353613 21.72428979 12.34712797 19.86525411 11 18 C10.67 23.94 10.34 29.88 10 36 C6.7 36 3.4 36 0 36 C0 24.12 0 12.24 0 0 Z " fill="#080808" transform="translate(374,3)"/>
<path d="M0 0 C1.37478516 0.01740234 1.37478516 0.01740234 2.77734375 0.03515625 C3.69644531 0.04417969 4.61554688 0.05320313 5.5625 0.0625 C6.27277344 0.07410156 6.98304688 0.08570313 7.71484375 0.09765625 C9.37015439 3.67170084 11.02415515 7.24634849 12.67700195 10.8215332 C13.51250853 12.62807929 14.34901868 14.43416113 15.18554688 16.24023438 C16.70266676 19.52273012 18.21179328 22.80869735 19.71484375 26.09765625 C20.06337402 26.85546387 20.4119043 27.61327148 20.77099609 28.39404297 C22.01447715 31.17268583 22.71484375 33.00978712 22.71484375 36.09765625 C19.41484375 36.09765625 16.11484375 36.09765625 12.71484375 36.09765625 C10.71484375 32.09765625 10.71484375 32.09765625 10.71484375 29.09765625 C5.43484375 29.09765625 0.15484375 29.09765625 -5.28515625 29.09765625 C-6.27515625 32.56265625 -6.27515625 32.56265625 -7.28515625 36.09765625 C-10.91515625 36.09765625 -14.54515625 36.09765625 -18.28515625 36.09765625 C-14.61719164 27.04236863 -10.86827557 18.03051039 -6.91015625 9.09765625 C-6.5646875 8.31471191 -6.21921875 7.53176758 -5.86328125 6.72509766 C-2.91999858 0.12478626 -2.91999858 0.12478626 0 0 Z " fill="#060606" transform="translate(205.28515625,2.90234375)"/>
<path d="M0 0 C9.24 0 18.48 0 28 0 C28 2.64 28 5.28 28 8 C22.06 8 16.12 8 10 8 C10 9.98 10 11.96 10 14 C15.28 14 20.56 14 26 14 C26 16.64 26 19.28 26 22 C20.72 22 15.44 22 10 22 C10 23.98 10 25.96 10 28 C15.94 28 21.88 28 28 28 C28 30.64 28 33.28 28 36 C18.76 36 9.52 36 0 36 C0 24.12 0 12.24 0 0 Z " fill="#080808" transform="translate(3,3)"/>
<path d="M0 0 C3.3 0 6.6 0 10 0 C10.01981934 0.7113208 10.03963867 1.4226416 10.06005859 2.15551758 C10.15524867 5.37488816 10.26495229 8.5936045 10.375 11.8125 C10.4059375 12.93205078 10.436875 14.05160156 10.46875 15.20507812 C10.50742188 16.27822266 10.54609375 17.35136719 10.5859375 18.45703125 C10.6173584 19.44678955 10.6487793 20.43654785 10.68115234 21.45629883 C10.83773433 24.24075094 10.83773433 24.24075094 13 27 C16.5 27.41666667 16.5 27.41666667 20 27 C22.63991268 24.36008732 22.30240797 23.02053704 22.4140625 19.3359375 C22.45273438 18.21445312 22.49140625 17.09296875 22.53125 15.9375 C22.5621875 14.761875 22.593125 13.58625 22.625 12.375 C22.66367188 11.19164062 22.70234375 10.00828125 22.7421875 8.7890625 C22.83668845 5.85953309 22.92224558 2.93001403 23 0 C26.3 0 29.6 0 33 0 C33.08742801 4.20820145 33.14053641 8.41616776 33.1875 12.625 C33.21263672 13.81480469 33.23777344 15.00460938 33.26367188 16.23046875 C33.35697425 27.36455191 33.35697425 27.36455191 30 32 C24.7487686 36.13394812 20.81878073 37.37227844 14.16015625 37.28515625 C9.39981984 36.65675741 5.37622261 34.42061689 2.0625 31 C-0.01225632 27.09457634 -0.11999605 23.5192254 -0.09765625 19.140625 C-0.09443359 18.02558594 -0.09121094 16.91054688 -0.08789062 15.76171875 C-0.07951172 14.60285156 -0.07113281 13.44398437 -0.0625 12.25 C-0.05798828 11.07566406 -0.05347656 9.90132812 -0.04882812 8.69140625 C-0.03705094 5.79421928 -0.02060326 2.89713546 0 0 Z " fill="#080808" transform="translate(78,3)"/>
<path d="M0 0 C10.56 0 21.12 0 32 0 C32 2.64 32 5.28 32 8 C28.37 8 24.74 8 21 8 C21 17.24 21 26.48 21 36 C17.7 36 14.4 36 11 36 C11 26.76 11 17.52 11 8 C7.37 8 3.74 8 0 8 C0 5.36 0 2.72 0 0 Z " fill="#030303" transform="translate(334,3)"/>
<path d="M0 0 C10.56 0 21.12 0 32 0 C32 2.64 32 5.28 32 8 C28.37 8 24.74 8 21 8 C21 17.24 21 26.48 21 36 C17.7 36 14.4 36 11 36 C11 26.76 11 17.52 11 8 C7.37 8 3.74 8 0 8 C0 5.36 0 2.72 0 0 Z " fill="#060606" transform="translate(278,3)"/>
<path d="M0 0 C10.56 0 21.12 0 32 0 C32 2.64 32 5.28 32 8 C28.37 8 24.74 8 21 8 C21 17.24 21 26.48 21 36 C17.7 36 14.4 36 11 36 C11 26.76 11 17.52 11 8 C7.37 8 3.74 8 0 8 C0 5.36 0 2.72 0 0 Z " fill="#030303" transform="translate(38,3)"/>
<path d="M0 0 C3.63 0 7.26 0 11 0 C11 11.88 11 23.76 11 36 C7.37 36 3.74 36 0 36 C0 24.12 0 12.24 0 0 Z " fill="#151515" transform="translate(169,3)"/>
<path d="M0 0 C10.19230769 0 10.19230769 0 14 3 C16.49040942 5.49040942 16.32391014 6.43154357 16.375 9.875 C16.30903437 13.39147559 16.2594706 14.63316226 14.1875 17.5625 C9.18754722 20.84818326 6.70902075 20 0 20 C0 13.4 0 6.8 0 0 Z " fill="#F9F9F9" transform="translate(133,11)"/>
<path d="M0 0 C3.0625 0.3125 3.0625 0.3125 5 1.375 C6.69431173 4.46462727 5.80201685 6.98467418 5.0625 10.3125 C4.0625 11.3125 4.0625 11.3125 0.6875 11.5625 C-2.9375 11.3125 -2.9375 11.3125 -4.9375 10.1875 C-6.46482345 7.32376853 -5.78028671 5.35949809 -4.9375 2.3125 C-2.9375 0.3125 -2.9375 0.3125 0 0 Z " fill="#0D0D0D" transform="translate(321.9375,27.6875)"/>
<path d="M0 0 C3.5625 0.1875 3.5625 0.1875 5.5625 2.1875 C5.8125 5.1875 5.8125 5.1875 5.5625 8.1875 C3.5625 10.1875 3.5625 10.1875 0.625 10.5 C-2.4375 10.1875 -2.4375 10.1875 -4.375 9.0625 C-5.97693488 6.23555609 -5.23334319 4.23823223 -4.4375 1.1875 C-3.4375 0.1875 -3.4375 0.1875 0 0 Z " fill="#383838" transform="translate(302.4375,46.8125)"/>
<path d="M0 0 C6.39075249 -0.36174071 6.39075249 -0.36174071 9 1.1875 C10 3 10 3 9.8125 5.5625 C9 8 9 8 7 10 C3.375 10.125 3.375 10.125 0 10 C0 6.7 0 3.4 0 0 Z " fill="#919191" transform="translate(400,47)"/>
<path d="M0 0 C2.31 0 4.62 0 7 0 C7.95024979 3.69541586 7.95024979 6.30458414 7 10 C4.69 10 2.38 10 0 10 C0 6.7 0 3.4 0 0 Z " fill="#555555" transform="translate(248,47)"/>
<path d="M0 0 C2.72957339 2.35735884 3.88893396 4.58133526 5 8 C5 8.99 5 9.98 5 11 C2.03 11 -0.94 11 -4 11 C-3.52269162 9.5410574 -3.04308958 8.08286504 -2.5625 6.625 C-2.29566406 5.81289063 -2.02882812 5.00078125 -1.75390625 4.1640625 C-1 2 -1 2 0 0 Z " fill="#DBDBDB" transform="translate(207,14)"/>
<path d="M0 0 C4 2 4 2 6 5 C6.33 3.35 6.66 1.7 7 0 C7.66 0 8.32 0 9 0 C9 3.3 9 6.6 9 10 C8.34 10 7.68 10 7 10 C5.61767557 8.37373596 4.28062485 6.7074998 3 5 C2.67 6.65 2.34 8.3 2 10 C1.34 10 0.68 10 0 10 C0 6.7 0 3.4 0 0 Z " fill="#343434" transform="translate(330,47)"/>
<path d="M0 0 C1.67542976 0.28604898 3.34385343 0.61781233 5 1 C5 2.98 5 4.96 5 7 C2.625 7.625 2.625 7.625 0 8 C-0.66 7.34 -1.32 6.68 -2 6 C-1.44444444 1.44444444 -1.44444444 1.44444444 0 0 Z " fill="#F5F5F5" transform="translate(301,48)"/>
<path d="M0 0 C3.76687864 1.88343932 4.79421646 2.69132469 7 6 C7.33 4.02 7.66 2.04 8 0 C8.33 0 8.66 0 9 0 C9 3.3 9 6.6 9 10 C4.125 6.25 4.125 6.25 3 4 C2.67 5.98 2.34 7.96 2 10 C1.34 10 0.68 10 0 10 C0 6.7 0 3.4 0 0 Z " fill="#272727" transform="translate(314,47)"/>
<path d="M0 0 C2.31 0 4.62 0 7 0 C7 0.33 7 0.66 7 1 C5.35 1 3.7 1 2 1 C2 1.99 2 2.98 2 4 C3.65 4 5.3 4 7 4 C7 4.33 7 4.66 7 5 C5.35 5 3.7 5 2 5 C2 6.32 2 7.64 2 9 C3.98 9 5.96 9 8 9 C8 9.33 8 9.66 8 10 C5.36 10 2.72 10 0 10 C0 6.7 0 3.4 0 0 Z " fill="#262626" transform="translate(386,47)"/>
<path d="M0 0 C0.66 0 1.32 0 2 0 C2 3.3 2 6.6 2 10 C1.34 10 0.68 10 0 10 C-0.66 8.35 -1.32 6.7 -2 5 C-1.67 5 -1.34 5 -1 5 C-0.67 3.35 -0.34 1.7 0 0 Z " fill="#2E2E2E" transform="translate(337,47)"/>
<path d="M0 0 C1.65 0 3.3 0 5 0 C5 1.32 5 2.64 5 4 C3.35 4 1.7 4 0 4 C0 2.68 0 1.36 0 0 Z " fill="#D7D7D7" transform="translate(249,52)"/>
</svg>
